<?xml version="1.0"?>
<svg xmlns="http://www.w3.org/2000/svg" height="512px" viewBox="0 -5 505.38048 505" width="512px" class=""><g><path d="m353.101562 450.398438c-24.363281.027343-44.105468 19.773437-44.136718 44.136718h88.277344c-.035157-24.363281-19.777344-44.105468-44.140626-44.136718zm0 0" data-original="#000000" class="active-path" data-old_color="#000000" fill="#FFFFFF"/><path d="m271.714844 423.738281-26.75.175781h-.085938c-6.277344-.015624-12.082031-3.335937-15.273437-8.738281l-15.449219-26.21875c-3.160156-5.453125-3.195312-12.171875-.085938-17.65625l1.234376-2.117187c-17.296876-26.488282-25.28125-57.984375-22.6875-89.511719-8.152344 1.976563-16.507813 2.984375-24.894532 3h-105.929687c-4.875 0-8.828125-3.949219-8.828125-8.828125v-211.859375c0-4.875 3.953125-8.828125 8.828125-8.828125h105.929687c56.878906-.15625 105.222656 41.527344 113.4375 97.808594 2.503906-.453125 5.042969-.6875 7.589844-.707032h20.214844v-27.804687c-25.925782-11.390625-43.066406-36.585937-44.136719-64.882813-.023437-5.394531.507813-10.78125 1.589844-16.066406.511719-2.5625 1.160156-5.097656 1.941406-7.59375-29.023437-21.808594-64.328125-33.640625-100.636719-33.71875h-141.238281c-14.609375.042969-26.4414062 11.875-26.484375 26.480469v441.378906c0 14.628907 11.855469 26.484375 26.484375 26.484375 14.625 0 26.480469-11.855468 26.480469-26.484375v-123.585937c0-4.875 3.953125-8.828125 8.828125-8.828125h107.433593c3.089844.007812 5.960938 1.609375 7.589844 4.238281l47.492188 78.476562 38.3125 63.382813c4.839844 7.902344 13.417968 12.746094 22.6875 12.800781 2.050781-.007812 4.09375-.242187 6.089844-.707031.039062-3.582031.390624-7.160156 1.058593-10.679687 2.109375-11.144532 7.238281-21.5 14.832031-29.925782l-21.894531-36.195312c-3.332031 4.164062-8.347656 6.625-13.679687 6.710937zm0 0" data-original="#000000" class="active-path" data-old_color="#000000" fill="#FFFFFF"/><path d="m375.171875 212.050781h-44.136719c-7.3125 0-13.242187 5.929688-13.242187 13.242188s5.929687 13.242187 13.242187 13.242187h44.136719c7.3125 0 13.242187-5.929687 13.242187-13.242187s-5.929687-13.242188-13.242187-13.242188zm0 0" data-original="#000000" class="active-path" data-old_color="#000000" fill="#FFFFFF"/><path d="m370.757812 435.347656v-73.226562h-35.308593v73.226562c11.511719-3.472656 23.796875-3.472656 35.308593 0zm0 0" data-original="#000000" class="active-path" data-old_color="#000000" fill="#FFFFFF"/><path d="m439.171875 179.214844c-4.925781-7.125-13.054687-11.355469-21.714844-11.300782h-128.707031c-8.632812.023438-16.714844 4.253907-21.65625 11.335938-4.9375 7.082031-6.113281 16.128906-3.148438 24.238281l13.152344 36.28125 19.507813 53.585938c.101562.191406.160156.402343.179687.617187l12.09375 33.101563c3.820313 10.453125 13.765625 17.402343 24.890625 17.390625h38.753907c11.128906.011718 21.074218-6.9375 24.894531-17.390625l44.933593-123.585938c3.027344-8.117187 1.835938-17.210937-3.179687-24.273437zm-68.414063 147.597656h-35.308593c-4.875 0-8.828125-3.953125-8.828125-8.828125s3.953125-8.828125 8.828125-8.828125h35.308593c4.875 0 8.828126 3.953125 8.828126 8.828125s-3.953126 8.828125-8.828126 8.828125zm0-35.3125h-35.308593c-4.875 0-8.828125-3.953125-8.828125-8.828125s3.953125-8.828125 8.828125-8.828125h35.308593c4.875 0 8.828126 3.953125 8.828126 8.828125s-3.953126 8.828125-8.828126 8.828125zm4.414063-35.308594h-44.136719c-17.0625 0-30.898437-13.835937-30.898437-30.898437s13.835937-30.894531 30.898437-30.894531h44.136719c17.0625 0 30.898437 13.832031 30.898437 30.894531s-13.835937 30.898437-30.898437 30.898437zm0 0" data-original="#000000" class="active-path" data-old_color="#000000" fill="#FFFFFF"/><path d="m326.621094 129.144531v21.113281h52.964844v-21.113281c-17.351563 4.613281-35.613282 4.613281-52.964844 0zm0 0" data-original="#000000" class="active-path" data-old_color="#000000" fill="#FFFFFF"/><path d="m321.058594 108.59375c.089844.085938.265625.085938.355468.175781 10.0625 4.085938 20.824219 6.183594 31.6875 6.179688 1.414063 0 2.828126 0 4.238282-.089844 9.453125-.5 18.761718-2.558594 27.542968-6.089844.089844-.089843.175782-.089843.351563-.175781 21.992187-7.628906 37.195313-27.785156 38.488281-51.023438 0-35.398437-27.011718-57.378906-70.621094-57.378906-38.046874 0-63.558593 16.859375-69.382812 44.753906-.828125 4.15625-1.238281 8.386719-1.234375 12.625 1.304687 23.261719 16.550781 43.425782 38.574219 51.023438zm58.527344-64.265625c4.875 0 8.828124 3.953125 8.828124 8.828125s-3.953124 8.828125-8.828124 8.828125-8.828126-3.953125-8.828126-8.828125 3.953126-8.828125 8.828126-8.828125zm-52.964844 0c4.875 0 8.828125 3.953125 8.828125 8.828125s-3.953125 8.828125-8.828125 8.828125-8.828125-3.953125-8.828125-8.828125 3.953125-8.828125 8.828125-8.828125zm0 0" data-original="#000000" class="active-path" data-old_color="#000000" fill="#FFFFFF"/><path d="m240.164062 243.515625c2.675782 1.847656 5.734376 3.074219 8.949219 3.582031 1.109375.179688 2.230469.269532 3.355469.265625 2.757812.027344 5.492188-.511719 8.035156-1.589843l-13.15625-36.28125c-.632812-1.664063-1.132812-3.375-1.5-5.121094-6.636718 2.15625-11.890625 7.28125-14.210937 13.859375h-.089844c-.746094 2.28125-1.132813 4.664062-1.148437 7.0625.023437 1.011719.113281 2.019531.273437 3.019531-.113281.089844-.261719.113281-.378906.210938-52.496094 45.023437-22.949219 113.496093-4.695313 140.359374l-3.847656 6.769532c-1.558594 2.742187-1.535156 6.109375.0625 8.828125l15.410156 26.273437c1.585938 2.699219 4.480469 4.359375 7.609375 4.359375h.070313l26.730468-.210937c4.875-.019532 8.8125-3.988282 8.792969-8.863282s-3.988281-8.8125-8.863281-8.792968h-.070312l-21.628907.175781-10.257812-17.46875 10.019531-17.65625 20.304688-.140625 4.035156 6.878906c1.582031 2.746094 4.515625 4.429688 7.6875 4.417969 3.167968-.015625 6.085937-1.726563 7.644531-4.488281 1.558594-2.757813 1.519531-6.144532-.105469-8.863282l-6.613281-11.273437c-1.589844-2.710937-4.5-4.371094-7.644531-4.363281h-.058594l-30.457031.214844c-3.152344.023437-6.050781 1.722656-7.609375 4.464843l-1.121094 1.976563c-12.703125-22.492188-33.84375-72.71875 4.476562-107.605469zm0 0" data-original="#000000" class="active-path" data-old_color="#000000" fill="#FFFFFF"/><path d="m480.414062 368.847656c18.300782-26.828125 47.8125-95.285156-4.695312-140.359375-.0625-.050781-.140625-.0625-.203125-.113281.167969-1.019531.265625-2.046875.292969-3.082031-.015625-2.398438-.402344-4.78125-1.148438-7.0625-2.296875-6.597657-7.558594-11.730469-14.214844-13.859375-.363281 1.746094-.867187 3.457031-1.5 5.121094l-13.152343 36.28125c2.511719 1.070312 5.214843 1.609374 7.945312 1.589843 1.125.003907 2.246094-.085937 3.355469-.265625 3.167969-.511718 6.179688-1.714844 8.828125-3.53125 38.195313 34.878906 17.089844 85.054688 4.410156 107.527344l-1.121093-1.964844c-1.554688-2.742187-4.457032-4.445312-7.609376-4.46875l-30.453124-.195312h-.0625c-3.128907.003906-6.023438 1.664062-7.609376 4.363281l-6.613281 11.273437c-1.621093 2.71875-1.664062 6.105469-.105469 8.863282 1.558594 2.761718 4.476563 4.472656 7.648438 4.488281 3.167969.011719 6.101562-1.671875 7.6875-4.417969l3.988281-6.914062 20.304688.140625 10.011719 17.65625-10.25 17.511719-21.628907-.175782h-.070312c-4.875-.019531-8.84375 3.917969-8.863281 8.792969-.019532 4.875 3.917968 8.84375 8.792968 8.863281l26.730469.175782h.070313c3.128906 0 6.023437-1.660157 7.609374-4.359376l15.414063-26.273437c1.59375-2.71875 1.617187-6.082031.0625-8.824219zm0 0" data-original="#000000" class="active-path" data-old_color="#000000" fill="#FFFFFF"/></g> </svg>
